<svg viewBox="0 0 1712 1044" xmlns="http://www.w3.org/2000/svg" style="background:#646464;" fill="none" id="vg" name="svgart$"><path d="M571.3420118343196 565.5844660194174L885.3775147928994 751.0718446601942L889.4295857988166 574.7067961165048L571.3420118343196 565.5844660194174" stroke="white" stroke-width="0.8199233716475096" stroke-linecap="round" stroke-dasharray="0" fill-rule="nonzero" strikethrough-thickness=".01%" class=""></path><circle r="65.41047718825848" cx="825.0387547400337" cy="638.1577070217687" fill="#00000000" stroke="white" stroke-width="0.8199233716475096"></circle><path d="M1196.1715087890625 634.9142456054688 1142.114501953125 779.6492309570312 1000.620849609375 779.6491088867188 946.5639038085938 634.9141235351562 1000.6209106445312 490.1792907714844 1142.114501953125 490.17938232421875 1196.1715087890625 634.9142456054688" stroke="white" stroke-width="0.8199233716475096" stroke-linecap="round" stroke-dasharray="0" fill-rule="nonzero" strikethrough-thickness=".01%" class=""></path><path d="M1164.8353781434912 779.2498200944326" stroke="white" stroke-width="0.8199233716475096" stroke-linecap="round" stroke-dasharray="0" fill-rule="nonzero" strikethrough-thickness=".01%"></path><path d="M508.940185546875 517.0671997070312 474.75628662109375 627.98681640625 375.4919738769531 683.0260009765625 276.2276611328125 627.98681640625 242.0437469482422 517.0671997070312 276.2276306152344 406.1476135253906 375.49200439453125 351.1083984375 474.7563171386719 406.1476745605469 508.940185546875 517.0671997070312" stroke="white" stroke-width="0.8199233716475096" stroke-linecap="round" stroke-dasharray="0" fill-rule="nonzero" strikethrough-thickness=".01%" class=""></path><path d="M680.7479908237796 347.8648667418841" stroke="white" stroke-width="0.8199233716475096" stroke-linecap="round" stroke-dasharray="0" fill-rule="nonzero" strikethrough-thickness=".01%"></path><path d="M927.1138916015625 333.8097229003906 818.5184326171875 430.03338623046875 709.9229736328125 333.8096618652344 818.5184936523438 237.58604431152344 927.1138916015625 333.8097229003906" stroke="white" stroke-width="0.8199233716475096" stroke-linecap="round" stroke-dasharray="0" fill-rule="nonzero" strikethrough-thickness=".01%" class=""></path><path d="M926.0333845691569 430.0334248663152" stroke="white" stroke-width="0.8199233716475096" stroke-linecap="round" stroke-dasharray="0" fill-rule="nonzero" strikethrough-thickness=".01%"></path><path d="M1575.4451904296875 574.3689575195312 1387.8505859375 678.4981079101562 1387.8505859375 470.2397155761719 1575.4451904296875 574.3689575195312" stroke="white" stroke-width="0.8199233716475096" stroke-linecap="round" stroke-dasharray="0" fill-rule="nonzero" strikethrough-thickness=".01%" class=""></path><path d="M1576.5259407359467 693.8377235190381" stroke="white" stroke-width="0.8199233716475096" stroke-linecap="round" stroke-dasharray="0" fill-rule="nonzero" strikethrough-thickness=".01%"></path><path d="M1351.7708740234375 310.5646667480469 1261.02197265625 423.6027526855469 1119.7796630859375 382.12652587890625 1119.7796630859375 239.0028076171875 1261.0218505859375 197.526611328125 1351.7708740234375 310.5646667480469" stroke="white" stroke-width="0.8199233716475096" stroke-linecap="round" stroke-dasharray="0" fill-rule="nonzero" strikethrough-thickness=".01%" class=""></path><path d="M1351.7709123058432 427.8710968313865" stroke="white" stroke-width="0.8199233716475096" stroke-linecap="round" stroke-dasharray="0" fill-rule="nonzero" strikethrough-thickness=".01%"></path><path d="M542.437255859375 194.88002014160156 501.30767822265625 272.4425964355469 414.4965515136719 290.45037841796875 342.837646484375 238.61105346679688 342.8376159667969 151.1490478515625 414.49652099609375 99.3096694946289 501.30767822265625 117.31744384765625 542.437255859375 194.88002014160156" stroke="white" stroke-width="0.8199233716475096" stroke-linecap="round" stroke-dasharray="0" fill-rule="nonzero" strikethrough-thickness=".01%"></path><path d="M543.5178445127589 292.725455452632" stroke="white" stroke-width="0.8199233716475096" stroke-linecap="round" stroke-dasharray="0" fill-rule="nonzero" strikethrough-thickness=".01%"></path><rect width="306.8768606693787" height="178.39229487446903" x="404.12656481139055" y="753.3017599457676" fill="#00000000" stroke="white"></rect><rect width="138.31068209134605" height="125.41515748848036" x="929.2749919101332" y="118.6578707796856" fill="#00000000" stroke="white"></rect><ellipse rx="79.96088433801765" ry="141.09205120790352" cx="1477.1150413738906" cy="340.8373083614608" fill="#00000000" stroke="white" stroke-width="0.8199233716475096"></ellipse><path d="M1333.4015567215238 826.821036862864" stroke="white" stroke-width="0.8199233716475096" stroke-linecap="round" stroke-dasharray="0" fill-rule="nonzero" strikethrough-thickness=".01%" class=""></path><path d="M744.5005493164062 451.6567077636719 728.0068969726562 488.5146179199219 691.5604248046875 507.71270751953125 650.4855346679688 507.7126770019531 614.0391845703125 488.5146789550781 597.5454711914062 451.65673828125 614.0391235351562 414.79876708984375 650.485595703125 395.6007385253906 691.5604248046875 395.6007080078125 728.0068359375 414.7987976074219 744.5005493164062 451.6567077636719" stroke="white" stroke-width="0.8199233716475096" stroke-linecap="round" stroke-dasharray="0" fill-rule="nonzero" strikethrough-thickness=".01%"></path><path d="M797.4475863304364 505.71496795358007" stroke="white" stroke-width="0.8199233716475096" stroke-linecap="round" stroke-dasharray="0" fill-rule="nonzero" strikethrough-thickness=".01%"></path><path d="M647.2508544921875 124.60428619384766 574.0630493164062 150.722412109375 574.0630493164062 98.48615264892578 647.2508544921875 124.60428619384766" stroke="white" stroke-width="0.8199233716475096" stroke-linecap="round" stroke-dasharray="0" fill-rule="nonzero" strikethrough-thickness=".01%"></path><path d="M597.5454373150887 207.31342074199787" stroke="white" stroke-width="0.8199233716475096" stroke-linecap="round" stroke-dasharray="0" fill-rule="nonzero" strikethrough-thickness=".01%"></path><path d="M239.88262939453125 317.5922546386719 172.8883819580078 385.7056579589844 105.89413452148438 317.5922546386719 172.88833618164062 249.47886657714844 239.88262939453125 317.5922546386719" stroke="white" stroke-width="0.8199233716475096" stroke-linecap="round" stroke-dasharray="0" fill-rule="nonzero" strikethrough-thickness=".01%"></path><path d="M238.80207086145526 385.7056537517066" stroke="white" stroke-width="0.8199233716475096" stroke-linecap="round" stroke-dasharray="0" fill-rule="nonzero" strikethrough-thickness=".01%"></path><path d="M948.7249139729336 322.9981310205552 948.4649042073086 330.79726432133646 947.6815179768398 338.5959093408677 946.3723138752773 346.3587267236802 944.5584711018398 353.9743273096177 942.2415765705898 361.4598924951646 939.4215692463711 368.8092577295396 936.1434930744961 375.9157030420396 932.3990472737148 382.81081412602396 928.2047723713711 389.46340201664896 923.6116937580898 395.80297110844583 918.6060785237148 401.8565294580552 913.2337030354336 407.57262442875833 907.5099481526211 412.9414903955552 901.4628290119961 417.9421007471177 895.1154169026211 422.5602648096177 888.4978021565273 426.77831290532083 881.6398920002773 430.5822374658677 874.5495599690273 433.9701769189927 867.2958368244961 436.9138719873521 859.8469232502773 439.42870353032083 852.2719720784023 441.4913866357896 844.6266473713711 443.0935594873521 836.8304437580898 444.2506944971177 829.0164789143398 444.9411241846177 821.2197870198086 445.16982291508646 813.4228509846523 444.94115470219583 805.6090692463711 444.2506944971177 797.8128656330898 443.0935594873521 790.1676019612148 441.4914171533677 782.5926507893398 439.42870353032083 775.1436151448086 436.9138719873521 767.8898309651211 433.97020743657083 760.7995599690273 430.5822069482896 753.9415887776211 426.7782518701646 747.3240961018398 422.56029532719583 740.9766229573086 417.9421922998521 734.9295648518398 412.9415819482896 729.2058099690273 407.5726854639146 723.8333734455898 401.8565294580552 718.8277582112148 395.8030321436021 714.2346795979336 389.46349356938333 710.0404657307461 382.8108751611802 706.2959588948086 375.9157030420396 703.0179437580898 368.80931876469583 700.1979364338711 361.45995353032083 697.8810419026211 353.97435782719583 696.0671380940273 346.3587267236802 694.7579950276211 338.5959093408677 693.9746087971523 330.7972948389146 693.7144769612148 322.99816153813333 693.9746087971523 315.1990282373521 694.7579339924648 307.4004442529771 696.0670770588711 299.6376268701646 697.8809808674648 292.02196524907083 700.1978753987148 284.53640006352396 703.0178216877773 277.18703482914896 706.2959588948086 270.0805742578599 710.0404657307461 263.1854784326646 714.2346185627773 256.5328447656724 718.8277582112148 250.19326041508646 723.8333124104336 244.13974784184427 729.2058099690273 238.42365287114114 734.9294427815273 233.0547716455552 740.9765619221523 228.05414603520364 747.3240350666836 223.43602774907083 753.9415277424648 219.21801017094583 760.7994378987148 215.41408561039896 767.8897699299648 212.0260851221177 775.1434930744961 209.08237479496927 782.5925287190273 206.56757376957864 790.1674188557461 204.50486014653177 797.8128045979336 202.90270255375833 805.6089471760586 201.7455675439927 813.4228509846523 201.05510733891458 821.2196649494961 200.82648490239114 829.0165399494961 201.05509208012552 836.8303216877773 201.7455675439927 844.6265863362148 202.90270255375833 852.2719110432461 204.5048448877427 859.8468011799648 206.56755851078958 867.2958368244961 209.08234427739114 874.5494989338711 212.02603934575052 881.6398309651211 215.41399405766458 888.4978021565273 219.21794913578958 895.1153558674648 223.43596671391458 901.4628290119961 228.05410025883646 907.5099481526211 233.05474112797708 913.2337030354336 238.42360709477396 918.6060785237148 244.13971732426614 923.6117547932461 250.19327567387552 928.2048334065273 256.5328447656724 932.3990472737148 263.18544791508646 936.1434930744961 270.08055899907083 939.4215692463711 277.1869737939927 942.2415765705898 284.53636954594583 944.5585321369961 292.0219347314927 946.3723138752773 299.63756583500833 947.6814569416836 307.4003527002427 948.4648431721523 315.19896720219583 948.7249139729336 322.9981310205552" stroke="white" stroke-width="0.8199233716475096" stroke-linecap="round" stroke-dasharray="0" fill-rule="nonzero" strikethrough-thickness=".01%" class=""></path><path d="M951.966614275148 410.5724725519569" stroke="white" stroke-width="0.8199233716475096" stroke-linecap="round" stroke-dasharray="0" fill-rule="nonzero" strikethrough-thickness=".01%"></path><ellipse name="Polyart$" fill="#00000000" stroke="yellow"></ellipse><rect stroke-width=".2%" stroke="rgb(127.07630961995731 78.8125638191043 65.76524306426646)" name="rectart$" x="0" y="0"></rect></svg>