<svg xmlns="http://www.w3.org/2000/svg" width="" height="" viewBox="50 0 731 436" fill="#646464" style="background:#646464"><path d="M74.41937877562633 305.3999938964844 74.41937877562633 305.3999938964844H393.23875432525955" stroke="hsl(30,100%,50%)" stroke-width="15.52" stroke-linecap="round" stroke-dasharray="0"/><path d="M131.07958477508652 395 131.07958477508652 395H591.9723183391004" stroke="hsl(90,100%,50%)" stroke-width="15.52" stroke-linecap="round" stroke-dasharray="0"/><path d="M297.6775151025053 264.6000061035156 297.6775151025053 264.6000061035156H375.479597679059" stroke="hsl(30,100%,50%)" stroke-width="15.52" stroke-linecap="round" stroke-dasharray="0"/><path d="M285.8380558317508 344.6000061035156 285.8380558317508 344.6000061035156H454.9730039286366" stroke="hsl(30,100%,50%)" stroke-width="15.52" stroke-linecap="round" stroke-dasharray="0"/><path d="M261.3134915836955 50.20000076293945 261.3134915836955 50.20000076293945H357.72040877292727" stroke="hsl(30,100%,50%)" stroke-width="15.52" stroke-linecap="round" stroke-dasharray="0"/><path d="M236.78892733564015 86.20000457763672 236.78892733564015 86.20000457763672H397.4671280276817" stroke="hsl(60,100%,50%)" stroke-width="15.52" stroke-linecap="round" stroke-dasharray="0"/><path d="M275.68998475388264 24.60000228881836 275.68998475388264 24.60000228881836H442.2878828213702" stroke="hsl(60,100%,50%)" stroke-width="15.52" stroke-linecap="round" stroke-dasharray="0"/><path d="M288.37510586114905 118.20000457763672 288.37510586114905 118.20000457763672H353.49203507050515" stroke="hsl(90,100%,50%)" stroke-width="15.52" stroke-linecap="round" stroke-dasharray="0"/><path d="M468.5038191323462 92.60000610351562 468.5038191323462 92.60000610351562H562.3737024221454" stroke="hsl(60,100%,50%)" stroke-width="15.52" stroke-linecap="round" stroke-dasharray="0"/><path d="M244.3999967740069 237.40000915527344 244.3999967740069 237.40000915527344H443.9792387543253" stroke="hsl(90,100%,50%)" stroke-width="15.52" stroke-linecap="round" stroke-dasharray="0"/><path d="M246.93703067343955 195.80003356933594 246.93703067343955 195.80003356933594H426.22008210812476" stroke="hsl(90,100%,50%)" stroke-width="15.52" stroke-linecap="round" stroke-dasharray="0"/><path d="M274.84429065743944 167 274.84429065743944 167H515.8615916955018" stroke="hsl(60,100%,50%)" stroke-width="15.52" stroke-linecap="round" stroke-dasharray="0"/><path d="M434 327 434 327" stroke="white" stroke-width="15.52" stroke-linecap="round" stroke-dasharray="0"/><path d="M520 53 520 53" stroke="white" stroke-width="15.52" stroke-linecap="round" stroke-dasharray="0"/><path d="M180.97439123767472 287.8000183105469 180.97439123767472 287.8000183105469H180.12872940116276" stroke="hsl(60,100%,50%)" stroke-width="15.52" stroke-linecap="round" stroke-dasharray="0"/><path d="M407.61523136548107 146.1999969482422 407.61523136548107 146.1999969482422" stroke="hsl(60,100%,50%)" stroke-width="15.52" stroke-linecap="round" stroke-dasharray="0"/><path d="M160.67820069204154 183 160.67820069204154 183H160.67820069204154" stroke="hsl(90,100%,50%)" stroke-width="15.52" stroke-linecap="round" stroke-dasharray="0"/><path d="M521.781321330879 327 521.781321330879 327H521.781321330879" stroke="hsl(60,100%,50%)" stroke-width="15.52" stroke-linecap="round" stroke-dasharray="0"/><path d="M263.85052548312814 3.8000030517578125 263.85052548312814 3.8000030517578125" stroke="hsl(90,100%,50%)" stroke-width="15.52" stroke-linecap="round" stroke-dasharray="0"/></svg>